<svg width="2560" height="480" xmlns="http://www.w3.org/2000/svg" preserveAspectRatio="xMidYMid meet">

 <g>
  <title>background</title>
  <rect fill="none" id="canvas_background" height="482" width="584" y="-1" x="-1"/>
 </g>
 <g>
  <title>Layer 1</title>
  <g id="Symbol">
   <g id="svg_1" fill="#879dab">
    <path id="svg_2" transform="translate(0.000000,0.00) scale(0.075,0.075)" d="m2938,6380c-551,-53 -1031,-220 -1478,-514c-306,-201 -588,-470 -810,-771c-276,-374 -475,-850 -559,-1336c-64,-371 -53,-836 29,-1211c155,-712 552,-1347 1130,-1810c450,-360 1021,-589 1640,-659c58,-6 202,-12 320,-12c282,0 503,26 756,87c902,220 1680,841 2079,1661c303,622 402,1333 279,2005c-90,496 -313,984 -634,1390c-111,140 -378,404 -519,513c-456,352 -957,560 -1549,643c-126,17 -558,26 -684,14zm687,-220c77,-11 189,-32 250,-46c127,-29 345,-94 345,-103c0,-4 -341,-188 -757,-409l-757,-403l-41,22c-22,13 -58,26 -79,29l-40,5l-148,370c-82,204 -150,377 -153,386c-10,29 325,119 570,153c169,24 174,24 430,21c183,-3 273,-8 380,-25zm-1292,-546l157,-387l-24,-28c-13,-16 -30,-44 -36,-64c-6,-19 -17,-35 -23,-35c-7,-1 -382,-54 -834,-119c-453,-64 -823,-115 -823,-111c0,3 43,62 95,132c269,358 584,630 980,844c90,49 321,153 341,154c6,0 81,-174 167,-386zm2026,347l37,-20l129,-440l128,-440l-35,-39c-20,-22 -37,-44 -39,-50c-3,-8 -290,13 -929,66c-775,65 -925,80 -928,92c-2,11 223,134 785,432c433,228 794,416 801,417c7,0 30,-8 51,-18zm204,-92c420,-211 850,-600 1137,-1027c34,-51 60,-95 57,-98c-4,-4 -805,157 -859,172c-10,3 -18,12 -18,21c0,58 -78,133 -137,133c-18,0 -33,2 -33,5c0,3 -52,184 -116,403c-63,218 -117,405 -120,415c-3,9 -3,17 1,17c3,0 42,-19 88,-41zm-913,-894c494,-41 904,-75 912,-75c7,-1 24,-23 36,-51l24,-50l-169,-269l-168,-270l-44,0c-24,0 -63,-9 -86,-21l-42,-21l-679,402c-373,222 -688,409 -699,416c-18,13 -18,14 -1,14c10,0 422,-34 916,-75zm-1175,18l48,-48l-31,-225c-18,-124 -60,-417 -94,-652l-62,-428l-44,0c-24,0 -51,-4 -61,-10c-16,-8 -146,87 -777,566c-418,317 -761,578 -763,580c-3,3 0,9 5,14c8,8 1633,247 1700,249c25,1 42,-9 79,-46zm915,-414l690,-411l0,-38l0,-37l-147,-46c-82,-26 -453,-148 -825,-271l-676,-223l-22,30l-22,29l98,669c82,557 101,669 114,669c8,0 31,9 50,19c19,11 38,20 43,20c4,1 318,-184 697,-410zm1959,175c251,-53 457,-97 457,-98c9,-9 123,-247 153,-320c113,-272 189,-599 209,-901l9,-130l-231,-273c-224,-265 -232,-273 -264,-270l-34,3l-418,1013l-419,1013l26,30c15,16 33,29 41,29c8,0 220,-43 471,-96zm-593,2c6,-5 804,-1949 802,-1952c-2,-2 -274,272 -605,609l-600,612l13,32c20,46 17,82 -9,128l-23,41l170,271l171,272l40,-6c22,-3 41,-6 41,-7zm-3341,-611c402,-307 733,-561 737,-564c31,-26 -38,-31 -947,-65c-516,-19 -941,-33 -944,-30c-2,2 6,77 18,165c49,346 162,693 324,986c44,82 52,91 66,79c9,-7 345,-264 746,-571zm2710,-142c17,-16 39,-32 48,-38c15,-9 13,-64 -23,-695c-22,-377 -40,-686 -40,-687c0,-2 -8,-3 -19,-3c-10,0 -30,-9 -45,-21l-27,-21l-342,200c-188,110 -542,317 -787,460c-245,144 -445,266 -445,273c0,8 312,116 820,285c451,150 822,272 824,273c2,1 18,-11 36,-26zm590,-425c220,-222 500,-505 623,-629l223,-225l-17,-31l-18,-30l-585,-82c-322,-45 -602,-85 -621,-88c-31,-4 -37,-1 -53,27c-11,17 -34,39 -53,47c-19,9 -34,21 -34,27c-1,6 16,316 37,688l37,678l26,9c14,5 27,10 30,10c3,1 185,-180 405,-401zm-2587,-114c-2,-9 -224,-178 -494,-375l-492,-359l-38,16c-26,11 -53,14 -84,10c-25,-3 -55,-7 -67,-8c-16,-2 -106,76 -362,316c-204,192 -341,327 -341,338c0,16 10,18 83,19c45,0 431,13 857,28c984,36 942,35 938,15zm59,-88l22,-23l-104,-467c-58,-256 -105,-468 -105,-470c0,-2 -14,-6 -32,-10c-17,-3 -47,-18 -65,-32l-34,-26l-339,122l-338,122l-7,45c-5,37 -3,47 12,58c10,7 229,169 488,359c258,190 472,346 475,346c3,0 15,-11 27,-24zm1013,-430c421,-245 769,-452 775,-460c5,-8 7,-18 3,-21c-3,-4 -417,-41 -920,-84l-913,-77l-16,26c-9,15 -29,36 -45,47l-28,21l104,465l105,465l43,7c27,4 55,17 75,35c18,16 37,28 42,26c6,-2 354,-204 775,-450zm-2307,-276c-7,-71 -4,-98 10,-126l15,-30l-206,-248l-206,-248l-27,59c-140,314 -228,733 -229,1086l0,138l323,-303c270,-254 322,-307 320,-328zm5277,366c-17,-270 -58,-489 -135,-721c-38,-117 -134,-350 -140,-343c-1,2 -35,117 -75,256l-72,253l26,25c51,52 58,134 15,189c-21,26 -21,26 -2,48c11,12 102,120 203,240c100,120 184,216 186,214c2,-2 -1,-74 -6,-161zm-642,-487l21,-41l-456,-782c-251,-429 -461,-787 -467,-794c-9,-9 -19,-10 -42,-2l-29,10l-174,676l-174,675l35,37c20,20 40,51 45,67l10,30l584,82c321,44 594,82 605,82c16,1 27,-10 42,-40zm-4015,-145c301,-109 327,-120 327,-142c0,-12 7,-39 15,-58l15,-36l-411,-469c-226,-259 -413,-468 -415,-466c-2,2 1,219 6,483c5,263 10,538 10,610l0,132l29,12c16,6 39,23 52,36c13,14 28,23 34,21c5,-2 157,-57 338,-123zm-517,-413c-3,-262 -9,-527 -12,-589c-8,-134 -2,-135 -120,20c-93,121 -192,278 -272,428l-61,115l215,257c181,216 218,255 235,251l22,-6l-7,-476zm4695,460c3,-3 43,-133 88,-289l82,-282l-62,-108c-75,-130 -175,-278 -265,-392c-140,-176 -514,-528 -595,-558c-13,-5 -72,-13 -130,-17l-105,-7l-16,40l-16,40l462,796l461,796l45,-6c25,-4 48,-9 51,-13zm-1736,-69c-6,-5 -361,-192 -790,-417c-429,-224 -806,-422 -838,-439c-52,-28 -59,-29 -70,-15c-17,22 -78,59 -99,59c-19,0 -16,-14 -68,300c-29,169 -38,246 -30,248c27,9 62,50 74,87c11,32 19,41 43,44c67,8 1683,139 1733,140c30,0 50,-3 45,-7zm90,-62c10,-11 38,-26 62,-31c38,-10 44,-16 52,-48c90,-346 333,-1280 337,-1292c3,-11 -7,-23 -29,-36c-19,-11 -42,-38 -53,-60l-19,-40l-1050,297c-859,244 -1050,301 -1050,315c0,12 239,141 860,465c473,247 863,449 866,449c3,1 14,-8 24,-19zm-2076,-210c13,0 21,-9 25,-27c10,-47 86,-497 86,-508c0,-5 -13,-19 -29,-29c-35,-24 -57,-59 -66,-108c-4,-22 -14,-39 -24,-42c-143,-41 -861,-236 -870,-236c-7,0 -11,5 -9,11c2,6 190,224 418,484c349,399 416,472 431,464c10,-5 27,-9 38,-9zm1376,-1065c741,-208 1053,-300 1060,-312c6,-9 24,-32 41,-52l31,-35l-30,-68c-34,-77 -25,-71 -205,-139c-310,-116 -653,-180 -984,-183c-97,0 -178,1 -181,4c-89,106 -817,1053 -817,1063c0,18 9,27 23,21c7,-2 485,-137 1062,-299zm-1319,264c31,-35 81,-51 134,-44l46,6l380,-487c208,-268 385,-496 392,-506c13,-17 10,-18 -45,-12c-640,65 -1267,346 -1732,776l-61,57l42,12c271,74 805,218 814,218c6,1 19,-9 30,-20zm2814,-563c0,-5 -223,-138 -278,-165c-24,-13 -46,-20 -49,-18c-2,3 3,19 11,36c12,22 27,33 59,42c27,7 56,26 81,52c35,37 44,41 105,47c36,4 67,8 69,9c1,0 2,-1 2,-3z"/>
   </g>
  </g>
  <rect id="svg_24" height="1" width="881.003502" y="70.449996" x="517" stroke-opacity="null" stroke-width="0" stroke="#000" fill="#FFDCEC"/>
  <line stroke-linecap="null" stroke-linejoin="null" id="svg_26" y2="283.450001" x2="989" y1="283.450001" x1="991" fill-opacity="null" stroke-opacity="null" stroke="#000" fill="none"/>
  <rect transform="rotate(21.5417, 550.5, 98.95)" id="svg_31" height="1" width="1" y="98.450001" x="550" fill-opacity="null" stroke-width="0" stroke="#0f0f00" fill="#000000"/>
  <text transform="matrix(11.185, 0, 0, 9.72198, -5945.69, -783.674)" xml:space="preserve" text-anchor="start" font-family="Helvetica, Arial, sans-serif" font-size="23" id="svg_32" y="104.332465" x="580" fill-opacity="null" stroke-width="0" stroke="#0f0f00" fill="#000000">Oratory</text>
  <text transform="matrix(15.2363, 0, 0, 5.31658, -8449.89, -1214.53)" xml:space="preserve" text-anchor="start" font-family="Helvetica, Arial, sans-serif" font-size="23" id="svg_33" y="308.450001" x="594" fill-opacity="null" stroke-opacity="null" stroke-width="0" stroke="#0f0f00" fill="#000000"/>
  <text transform="matrix(7.05656, 0, 0, 4.68459, -2798.24, -1085.88)" xml:space="preserve" text-anchor="start" font-family="Helvetica, Arial, sans-serif" font-size="23" id="svg_34" y="298.629682" x="601.680571" fill-opacity="null" stroke-opacity="null" stroke-width="0" stroke="#0f0f00" fill="#000000">in</text>
  <rect id="svg_35" height="0" width="1" y="307.450001" x="1096" fill-opacity="null" stroke-opacity="null" stroke-width="0" stroke="#0f0f00" fill="#000000"/>
  <text transform="matrix(-6.0321, 0, 0, 3.52669, 6343.38, -758.204)" xml:space="preserve" text-anchor="start" font-family="Helvetica, Arial, sans-serif" font-size="23" id="svg_36" y="323.450001" x="870" fill-opacity="null" stroke-opacity="null" stroke-width="0" stroke="#0f0f00" fill="#000000"/>
  <text transform="matrix(12.1704, 0, 0, 12.0181, -9109.22, -3449.31)" xml:space="preserve" text-anchor="start" font-family="Helvetica, Arial, sans-serif" font-size="23" id="svg_37" y="319.619398" x="884" fill-opacity="null" stroke-opacity="null" stroke-width="0" stroke="#0f0f00" fill="#000000">solitary</text>
 </g>
</svg>